<svg xmlns="http://www.w3.org/2000/svg" viewBox="0 0 1600 1000" preserveAspectRatio="xMidYMid slice">
  <defs>
    <linearGradient id="restBg" x1="0" y1="0" x2="1" y2="1">
      <stop offset="0%" stop-color="#211C18"/>
      <stop offset="50%" stop-color="#3a2a1a"/>
      <stop offset="100%" stop-color="#1a1209"/>
    </linearGradient>
    <radialGradient id="restGlow" cx="0.5" cy="0.3">
      <stop offset="0%" stop-color="#c6a15b" stop-opacity="0.5"/>
      <stop offset="100%" stop-color="#c6a15b" stop-opacity="0"/>
    </radialGradient>
  </defs>
  <rect width="1600" height="1000" fill="url(#restBg)"/>
  <rect width="1600" height="1000" fill="url(#restGlow)"/>
  <g transform="translate(800,200)">
    <rect x="-300" y="0" width="600" height="40" rx="20" fill="#c6a15b" opacity="0.7"/>
    <line x1="-280" y1="40" x2="-280" y2="200" stroke="#c6a15b" stroke-width="2" opacity="0.4"/>
    <line x1="280" y1="40" x2="280" y2="200" stroke="#c6a15b" stroke-width="2" opacity="0.4"/>
  </g>
  <g transform="translate(0,500)">
    <rect x="100" y="100" width="280" height="320" rx="20" fill="#6e6660" opacity="0.3"/>
    <rect x="450" y="100" width="280" height="320" rx="20" fill="#6e6660" opacity="0.4"/>
    <rect x="800" y="100" width="280" height="320" rx="20" fill="#6e6660" opacity="0.3"/>
    <rect x="1150" y="100" width="280" height="320" rx="20" fill="#6e6660" opacity="0.4"/>
    <circle cx="240" cy="260" r="20" fill="#c6a15b" opacity="0.5"/>
    <circle cx="590" cy="260" r="20" fill="#c6a15b" opacity="0.5"/>
    <circle cx="940" cy="260" r="20" fill="#c6a15b" opacity="0.5"/>
    <circle cx="1290" cy="260" r="20" fill="#c6a15b" opacity="0.5"/>
  </g>
  <text x="800" y="920" text-anchor="middle" font-family="serif" font-size="24" fill="#c6a15b" opacity="0.7">Restaurant Interior Design</text>
</svg>
